<?xml version="1.0" standalone="no"?>
<!DOCTYPE svg PUBLIC "-//W3C//DTD SVG 20010904//EN"
 "http://www.w3.org/TR/2001/REC-SVG-20010904/DTD/svg10.dtd">
<svg version="1.0" xmlns="http://www.w3.org/2000/svg"
 width="2012.000000pt" height="2012.000000pt" viewBox="0 0 2012.000000 2012.000000"
 preserveAspectRatio="xMidYMid meet">
<metadata>
Created by potrace 1.14, written by Peter Selinger 2001-2017
</metadata>
<g transform="translate(0.000000,2012.000000) scale(0.100000,-0.100000)"
fill="#000000" stroke="none">
<path d="M5279 14575 c-40 -22 -55 -53 -77 -157 -12 -53 -31 -122 -44 -154
-29 -74 -61 -93 -161 -101 -94 -7 -200 14 -365 73 -764 274 -1015 327 -1439
300 -56 -4 -112 -9 -125 -11 -13 -3 -48 -8 -78 -11 -30 -3 -58 -8 -61 -10 -4
-2 -24 -6 -45 -10 -72 -10 -265 -64 -362 -100 -88 -33 -267 -116 -317 -147
-145 -89 -248 -161 -343 -241 -45 -37 -226 -220 -262 -265 -19 -23 -45 -55
-58 -69 -12 -15 -56 -76 -97 -137 -177 -264 -291 -553 -351 -895 -13 -79 -20
-136 -29 -255 -11 -139 -4 -451 11 -524 3 -13 7 -46 10 -75 3 -28 8 -54 10
-57 2 -4 6 -24 10 -45 9 -61 52 -210 91 -314 184 -494 563 -878 1306 -1323 98
-59 179 -107 181 -107 2 0 33 -16 68 -36 34 -20 169 -90 298 -156 556 -285
761 -405 1023 -601 467 -349 707 -687 815 -1147 19 -80 24 -111 42 -255 7 -62
5 -412 -4 -477 -7 -55 -16 -111 -21 -138 -3 -13 -7 -42 -10 -63 -4 -22 -17
-78 -31 -126 -156 -546 -528 -888 -1089 -1000 -153 -30 -166 -31 -375 -35
-283 -6 -475 18 -704 86 -586 174 -1009 619 -1251 1317 -53 153 -116 385 -139
511 -2 14 -7 36 -10 50 -6 27 -7 31 -36 205 -39 239 -89 328 -187 328 -51 0
-88 -23 -117 -73 -22 -37 -27 -155 -13 -300 28 -291 29 -1157 2 -1390 -2 -19
-7 -73 -10 -120 -4 -47 -8 -101 -10 -120 -14 -141 -17 -169 -20 -200 -13 -117
-18 -157 -21 -174 -13 -69 -19 -145 -19 -235 l0 -103 35 -29 c28 -24 44 -29
85 -29 97 0 148 60 160 190 7 79 34 201 46 214 5 6 9 16 9 24 0 24 54 91 82
103 16 7 52 9 85 6 102 -9 76 0 528 -185 272 -111 659 -234 842 -266 15 -3 53
-10 83 -16 30 -6 71 -13 90 -16 19 -2 44 -6 55 -9 145 -30 583 -25 794 10 13
2 45 7 70 11 25 3 62 10 81 14 19 5 46 11 60 14 191 34 504 151 714 267 150
83 347 214 406 270 8 8 38 32 65 53 85 68 308 296 393 404 196 246 330 501
416 786 37 120 68 264 81 371 3 22 8 63 11 90 10 77 12 351 3 438 -19 191 -48
331 -101 486 -127 373 -359 705 -703 1007 -124 109 -309 254 -324 254 -5 0
-11 4 -13 9 -7 20 -398 272 -548 354 -30 17 -71 40 -90 52 -36 23 -182 99
-565 295 -967 497 -1265 729 -1478 1155 -63 126 -123 309 -141 428 -3 20 -8
52 -11 70 -3 17 -8 48 -11 67 -18 120 -6 493 21 625 94 463 324 778 705 966
58 28 197 75 253 84 17 4 51 10 74 15 121 27 460 30 536 5 7 -2 28 -6 47 -9
56 -9 191 -46 221 -62 15 -7 33 -14 40 -14 24 0 232 -111 319 -170 388 -266
682 -665 829 -1124 29 -89 66 -231 77 -296 18 -101 36 -160 67 -215 12 -22 38
-50 56 -62 61 -41 149 -22 169 37 14 38 6 203 -17 366 -34 236 -45 449 -45
839 0 342 15 641 39 766 10 49 7 147 -4 182 -18 52 -54 77 -110 77 -25 -1 -58
-7 -72 -15z"/>
<path d="M11457 14406 c-50 -18 -66 -41 -67 -94 0 -49 32 -91 72 -93 13 -1 32
-3 43 -4 11 -2 56 -6 100 -9 44 -4 98 -9 120 -11 22 -2 94 -6 160 -10 150 -8
240 -20 302 -41 96 -33 127 -72 139 -176 3 -29 7 -59 10 -67 3 -8 7 -78 11
-155 8 -185 8 -7164 0 -7326 -7 -136 -15 -203 -28 -237 -26 -69 -181 -122
-404 -138 -44 -3 -114 -7 -155 -10 -272 -19 -370 -55 -370 -137 0 -34 32 -65
83 -80 50 -15 788 -17 1232 -3 343 10 570 10 865 0 129 -5 379 -9 555 -10 287
0 325 2 368 18 52 21 77 48 77 88 0 61 -94 94 -330 114 -349 31 -506 68 -570
137 -11 13 -29 52 -40 88 -18 60 -22 87 -37 210 -3 25 -7 905 -9 1956 l-3
1911 1864 0 c1369 0 1865 -3 1867 -11 7 -21 1 -3861 -6 -3946 -8 -105 -24
-208 -35 -229 -23 -42 -105 -82 -196 -95 -23 -4 -50 -8 -60 -10 -11 -2 -58 -7
-105 -10 -131 -11 -255 -23 -310 -31 -14 -2 -45 -7 -68 -10 -112 -16 -212 -63
-212 -100 0 -27 46 -66 95 -81 42 -12 100 -14 350 -10 165 3 343 8 395 11 91
4 642 5 1745 2 l510 -2 42 23 c48 25 63 47 63 92 0 38 -47 90 -82 91 -13 0
-104 2 -203 3 -313 5 -510 42 -602 112 -37 28 -48 50 -58 111 -3 21 -8 50 -10
63 -3 14 -8 75 -13 135 -9 142 -9 7298 0 7430 14 184 36 229 135 276 61 28
125 38 296 44 294 11 403 26 480 68 68 38 56 99 -29 141 -34 17 -60 20 -209
20 -93 0 -278 -4 -410 -9 -132 -5 -510 -8 -840 -6 -1464 6 -1519 6 -1556 -7
-100 -35 -113 -144 -23 -187 32 -15 69 -18 221 -20 273 -4 385 -16 503 -53 69
-22 110 -63 133 -132 18 -56 19 -65 36 -185 21 -148 24 -330 25 -1733 l1
-1442 -30 -1 c-39 -1 -3665 -1 -3687 0 -16 1 -17 98 -14 1584 2 870 6 1600 10
1622 30 180 55 237 118 267 59 28 166 48 282 53 61 3 168 7 237 10 181 7 260
26 303 74 27 30 15 84 -27 115 -59 44 -120 48 -477 30 -316 -17 -2049 -8
-2245 11 -148 14 -292 15 -328 1z"/>
<path d="M8035 12384 c-55 -20 -109 -44 -120 -54 -11 -9 -32 -20 -47 -24 -15
-3 -39 -17 -54 -31 -31 -29 -80 -44 -274 -86 -78 -17 -146 -57 -222 -132 -40
-40 -89 -80 -108 -88 -19 -9 -66 -29 -104 -45 -59 -25 -71 -34 -87 -70 -10
-22 -42 -63 -71 -89 -322 -296 -414 -427 -463 -655 -2 -8 -13 -42 -24 -74 -17
-48 -21 -83 -21 -188 0 -71 -4 -138 -10 -148 -5 -10 -30 -31 -55 -46 -60 -38
-102 -105 -174 -281 -35 -86 -24 -229 29 -383 24 -70 72 -157 131 -237 66 -91
71 -129 29 -213 -17 -34 -34 -72 -36 -84 -2 -11 -6 -32 -9 -46 -3 -14 -9 -41
-15 -60 -17 -60 -11 -139 27 -337 l37 -193 81 -69 c44 -37 106 -85 137 -105
67 -43 150 -123 198 -193 28 -40 55 -62 135 -107 154 -89 363 -200 435 -232
36 -15 110 -54 165 -85 187 -105 220 -122 240 -124 11 -2 47 -6 80 -10 33 -3
74 -8 92 -10 18 -3 63 -7 100 -10 70 -5 144 -12 223 -20 25 -3 72 -7 105 -10
33 -3 71 -7 85 -9 14 -3 52 -7 85 -11 33 -4 76 -8 95 -11 40 -5 272 -58 342
-78 30 -9 105 -15 201 -15 151 -2 155 -1 302 40 174 49 340 126 400 186 27 27
53 42 80 47 22 4 70 21 107 37 100 44 167 41 257 -10 65 -37 70 -38 107 -26
21 7 65 21 97 30 47 15 73 32 143 98 47 44 99 101 116 126 40 59 47 66 149
141 46 34 85 63 87 65 1 1 -2 13 -7 26 -8 22 -3 28 41 58 49 34 50 34 203 43
143 7 158 7 206 -13 58 -22 63 -22 213 13 l99 23 81 80 c59 59 92 102 124 161
38 73 42 89 42 150 0 63 -3 74 -37 124 -57 85 -169 287 -191 344 -32 81 -35
91 -36 96 -4 22 -99 163 -133 197 l-43 42 0 90 0 91 -79 0 -79 0 -40 53 c-22
28 -52 66 -66 82 -36 40 -67 102 -101 200 -42 123 -57 157 -84 195 -43 60
-142 179 -150 182 -9 3 -123 104 -200 176 -67 63 -376 297 -489 370 -53 34
-126 77 -161 94 -47 24 -67 40 -77 63 -7 17 -52 72 -101 123 -72 74 -101 97
-149 116 l-59 24 -3 55 -3 55 -77 28 -78 27 -37 76 c-79 162 -113 218 -163
266 -47 45 -65 55 -171 90 -111 38 -125 40 -233 39 -63 0 -137 -4 -165 -8 -64
-10 -184 -54 -209 -77 -14 -14 -24 -16 -37 -8 -11 5 -19 15 -19 21 0 17 -79
85 -143 124 -142 84 -234 93 -392 38z m207 -426 c16 -47 8 -42 151 -109 59
-27 118 -60 130 -72 13 -12 42 -39 65 -61 l41 -39 88 69 c48 37 102 83 118
100 21 22 44 34 75 40 72 12 152 8 193 -10 35 -16 44 -28 120 -186 67 -138 87
-172 109 -181 23 -9 28 -18 28 -45 0 -19 -3 -34 -6 -34 -4 0 -39 12 -78 26
-39 14 -78 27 -86 29 -8 2 -46 13 -85 25 -279 82 -549 87 -806 15 -183 -52
-443 -163 -614 -263 -132 -77 -324 -229 -438 -347 -267 -275 -450 -631 -482
-940 -8 -75 -13 -83 -34 -52 -9 14 -31 45 -48 70 -18 25 -42 71 -54 103 -12
33 -25 64 -29 69 -22 29 -22 79 1 126 12 27 26 49 31 49 19 0 100 86 136 144
54 87 65 132 72 301 6 152 32 272 76 358 28 54 111 151 182 215 61 53 76 62
109 62 38 0 40 2 75 68 35 63 42 70 107 101 38 19 74 43 81 55 6 12 33 33 60
48 31 18 56 41 71 67 19 35 28 41 54 41 45 0 343 98 364 119 10 10 40 23 67
30 31 8 59 23 76 42 35 38 60 28 80 -33z m613 -1181 c164 -37 308 -87 248 -87
-34 0 -53 -11 -53 -29 0 -31 -11 -31 -64 0 -139 82 -281 122 -433 123 -24 0
-38 3 -31 7 20 12 259 2 333 -14z m-188 -118 c130 -25 343 -122 343 -157 0 -8
-16 -64 -35 -126 -19 -61 -36 -122 -39 -136 -2 -14 -10 -47 -16 -75 -24 -99
-15 -298 17 -385 4 -8 7 -20 9 -27 5 -25 68 -140 99 -183 19 -25 54 -65 79
-90 25 -24 46 -50 46 -57 0 -8 -40 -53 -88 -101 -162 -161 -340 -238 -553
-239 -365 -3 -657 235 -736 601 -21 94 -21 289 0 382 70 321 298 537 625 594
59 10 190 10 249 -1z m613 -24 c0 -2 -13 -11 -30 -20 -30 -16 -40 -9 -18 13
12 12 48 17 48 7z m213 -106 c368 -185 600 -345 761 -526 45 -51 48 -64 31
-145 -65 -314 -334 -527 -649 -513 -125 5 -216 29 -292 76 l-34 20 26 50 c14
28 34 78 44 112 82 269 43 556 -106 779 l-51 76 50 39 c57 43 106 72 125 73 8
0 51 -18 95 -41z m-2163 -171 c-41 -75 -94 -218 -120 -322 -29 -117 -29 -119
-37 -279 -3 -76 -8 -135 -12 -132 -12 13 -9 264 5 338 25 131 91 299 160 409
35 55 37 47 4 -14z m1857 -36 c86 -127 131 -288 127 -451 -1 -58 -5 -117 -8
-130 -20 -89 -67 -215 -85 -225 -8 -5 -67 59 -108 119 -101 147 -129 366 -69
540 26 76 90 195 104 195 4 0 21 -22 39 -48z m-1446 -59 c-17 -34 -52 -148
-66 -218 -14 -70 -14 -278 -1 -339 63 -279 238 -512 474 -630 133 -67 238 -93
383 -94 280 -2 525 117 703 340 l38 48 42 -24 c41 -23 124 -53 168 -61 12 -3
44 -8 69 -13 58 -11 200 -7 259 8 25 6 56 13 70 16 13 3 30 10 37 16 7 6 13 8
13 4 0 -8 91 38 144 73 66 42 105 79 180 166 34 39 90 146 112 215 l18 55 33
-70 c173 -369 28 -729 -371 -919 -104 -50 -235 -92 -314 -102 -19 -3 -38 -6
-42 -9 -36 -22 -480 -23 -595 -1 -11 2 -45 7 -75 11 -58 8 -79 11 -120 20 -14
3 -34 7 -45 9 -201 39 -528 142 -710 223 -111 50 -264 137 -310 178 -150 131
-217 242 -254 423 -16 76 -6 272 17 357 29 106 130 335 148 335 3 0 1 -8 -5
-17z m3230 -330 c13 -20 41 -58 64 -83 22 -25 50 -59 62 -76 12 -16 49 -66 82
-111 34 -46 68 -83 76 -83 8 0 19 -9 24 -19 6 -11 30 -39 54 -63 49 -49 61
-69 106 -182 31 -78 87 -187 121 -236 10 -14 25 -40 35 -59 16 -33 16 -35 0
-47 -14 -11 -28 -9 -80 11 -35 13 -65 22 -67 20 -1 -1 -21 -6 -43 -9 -37 -5
-78 -9 -265 -21 -36 -2 -74 -6 -85 -8 -11 -3 -39 -8 -62 -12 -25 -4 -63 -22
-94 -46 -47 -35 -102 -59 -136 -59 -7 0 -29 -15 -50 -32 -40 -36 -40 -35 23
62 107 167 195 420 221 638 14 111 7 325 -12 425 -7 36 -1 34 26 -10z m-4166
-524 c3 -13 10 -37 16 -54 6 -16 17 -43 23 -60 28 -76 118 -240 172 -315 233
-326 603 -547 1164 -695 l95 -25 -85 6 c-47 3 -98 7 -115 9 -189 18 -174 14
-290 80 -60 34 -146 79 -190 99 -44 21 -105 51 -135 67 -30 16 -113 59 -184
96 -77 40 -142 82 -160 102 -118 131 -192 201 -263 248 -46 30 -85 58 -88 63
-9 15 -36 155 -40 204 -3 49 4 82 32 146 17 39 34 63 40 57 2 -3 6 -15 8 -28z
m3729 -824 c5 -14 -42 -90 -85 -138 -16 -18 -18 -18 -55 2 -22 11 -34 20 -28
21 5 0 41 29 80 65 38 35 72 64 75 65 4 0 9 -7 13 -15z m-1377 -461 c-3 -3
-12 -4 -19 -1 -8 3 -5 6 6 6 11 1 17 -2 13 -5z"/>
</g>
</svg>
